<svg width="24" height="24" viewBox="0 0 24 24" fill="none" xmlns="http://www.w3.org/2000/svg">
<g clip-path="url(#clip0_142_35439)">
<mask id="mask0_142_35439" style="mask-type:alpha" maskUnits="userSpaceOnUse" x="0" y="0" width="25" height="24">
<rect x="0.0859375" width="24" height="24" fill="#D9D9D9"/>
</mask>
<g mask="url(#mask0_142_35439)">
<path d="M5.58594 22V14.5H4.08594V9C4.08594 8.45 4.28177 7.97917 4.67344 7.5875C5.0651 7.19583 5.53594 7 6.08594 7H9.08594C9.63594 7 10.1068 7.19583 10.4984 7.5875C10.8901 7.97917 11.0859 8.45 11.0859 9V14.5H9.58594V22H5.58594ZM7.58594 6C7.03594 6 6.5651 5.80417 6.17344 5.4125C5.78177 5.02083 5.58594 4.55 5.58594 4C5.58594 3.45 5.78177 2.97917 6.17344 2.5875C6.5651 2.19583 7.03594 2 7.58594 2C8.13594 2 8.60677 2.19583 8.99844 2.5875C9.3901 2.97917 9.58594 3.45 9.58594 4C9.58594 4.55 9.3901 5.02083 8.99844 5.4125C8.60677 5.80417 8.13594 6 7.58594 6ZM15.0859 22V16H12.0859L14.6359 8.35C14.7693 7.91667 15.0151 7.58333 15.3734 7.35C15.7318 7.11667 16.1359 7 16.5859 7C17.0359 7 17.4401 7.11667 17.7984 7.35C18.1568 7.58333 18.4026 7.91667 18.5359 8.35L21.0859 16H18.0859V22H15.0859ZM16.5859 6C16.0359 6 15.5651 5.80417 15.1734 5.4125C14.7818 5.02083 14.5859 4.55 14.5859 4C14.5859 3.45 14.7818 2.97917 15.1734 2.5875C15.5651 2.19583 16.0359 2 16.5859 2C17.1359 2 17.6068 2.19583 17.9984 2.5875C18.3901 2.97917 18.5859 3.45 18.5859 4C18.5859 4.55 18.3901 5.02083 17.9984 5.4125C17.6068 5.80417 17.1359 6 16.5859 6Z" fill="#939DA5"/>
</g>
</g>
<defs>
<clipPath id="clip0_142_35439">
<rect width="24" height="24" fill="white"/>
</clipPath>
</defs>
</svg>
